<?xml version="1.0" standalone="no"?>
<!DOCTYPE svg PUBLIC "-//W3C//DTD SVG 20010904//EN"
 "http://www.w3.org/TR/2001/REC-SVG-20010904/DTD/svg10.dtd">
<svg version="1.0" xmlns="http://www.w3.org/2000/svg"
 width="500.000000pt" height="500.000000pt" viewBox="0 0 500.000000 500.000000"
 preserveAspectRatio="xMidYMid meet">
<metadata>
Created by potrace 1.11, written by Peter Selinger 2001-2013
</metadata>
<g transform="translate(0.000000,500.000000) scale(0.100000,-0.100000)"
fill="#000000" stroke="none">
<path d="M2250 4990 c-132 -17 -161 -22 -260 -41 -912 -182 -1673 -903 -1909
-1810 -16 -63 -32 -130 -35 -149 -3 -19 -8 -44 -10 -56 -2 -12 -7 -45 -11 -74
-4 -29 -9 -62 -12 -74 -9 -35 -12 -490 -3 -537 4 -24 11 -71 14 -104 4 -33 9
-67 11 -75 2 -8 7 -31 10 -50 9 -50 42 -182 72 -279 45 -151 166 -417 234
-519 16 -24 29 -45 29 -48 0 -8 91 -136 159 -224 83 -107 291 -317 396 -400
137 -108 425 -290 459 -290 7 0 16 -4 22 -9 18 -17 219 -98 324 -130 159 -49
162 -50 200 -56 19 -3 54 -10 78 -16 23 -5 59 -12 80 -15 20 -3 48 -7 62 -9
147 -25 534 -25 680 -1 14 3 41 7 60 10 271 41 608 162 855 307 617 362 1040
949 1189 1649 42 195 54 339 50 570 -2 96 -5 184 -7 195 -3 11 -8 47 -11 80
-11 93 -43 243 -81 375 -93 323 -256 626 -494 915 -61 74 -289 289 -378 356
-54 41 -99 77 -101 82 -2 4 -8 7 -13 7 -6 0 -36 17 -67 38 -197 132 -513 269
-733 318 -10 2 -28 6 -40 9 -11 2 -28 6 -37 9 -21 6 -57 13 -142 26 -36 6 -81
13 -100 16 -55 9 -479 12 -540 4z m1408 -1890 c163 -121 308 -228 321 -237
312 -230 740 -549 754 -562 16 -16 8 -17 -126 -16 l-143 0 -152 113 -153 114
-142 -47 -142 -47 -159 66 -159 66 -76 -57 c-42 -32 -78 -60 -81 -63 -5 -5
-134 -107 -226 -178 l-41 -31 -229 176 c-126 96 -234 180 -240 185 -8 5 -27
-3 -55 -24 -24 -18 -117 -86 -206 -151 -90 -65 -163 -121 -163 -125 1 -4 65
-54 143 -112 577 -427 627 -465 606 -470 -16 -4 -208 -5 -255 -1 -9 1 -490
353 -559 408 -5 5 -117 88 -248 186 l-239 178 -26 -17 c-22 -15 -270 -196
-362 -264 -102 -76 -447 -332 -547 -404 l-121 -89 -132 -1 c-73 -1 -136 1
-141 4 -5 3 70 64 166 135 l175 129 0 196 0 197 174 0 c196 0 185 4 181 -80
-2 -40 0 -45 14 -38 9 5 108 77 220 160 112 82 213 157 225 165 11 9 54 41 95
71 41 30 79 51 85 48 6 -4 98 -72 204 -151 106 -79 199 -141 205 -139 7 3 100
71 207 151 107 80 203 151 213 158 21 15 410 303 662 491 94 69 171 127 173
127 1 0 136 -99 300 -220z"/>
<path d="M3245 3020 c-102 -74 -214 -155 -422 -306 -45 -32 -82 -61 -82 -64 0
-6 375 -293 389 -298 5 -2 96 65 202 149 106 83 199 154 206 156 7 3 52 -12
100 -32 198 -85 222 -95 243 -95 9 0 54 12 98 26 l79 27 -26 21 c-15 12 -139
105 -277 207 -137 101 -281 208 -320 236 -38 29 -72 53 -75 53 -3 0 -54 -36
-115 -80z"/>
</g>
</svg>
